<?xml version="1.0" encoding="UTF-8" standalone="no"?><!-- Generator: Gravit.io --><svg xmlns="http://www.w3.org/2000/svg" xmlns:xlink="http://www.w3.org/1999/xlink" style="isolation:isolate" viewBox="0 0 500 500" width="500pt" height="500pt"><mask id="_mask_zryvyw9V4b9Rrrt7O27NDycPrFUi3wF6"><circle vector-effect="non-scaling-stroke" cx="250" cy="250" r="125" fill="white" stroke="none"/></mask><circle vector-effect="non-scaling-stroke" cx="250" cy="250" r="125" fill="rgb(255,153,0)"/><circle vector-effect="non-scaling-stroke" cx="250" cy="250" r="125" fill="rgb(255,153,0)" mask="url(#_mask_zryvyw9V4b9Rrrt7O27NDycPrFUi3wF6)" stroke-width="20" stroke="rgb(255,25,0)" stroke-linejoin="miter" stroke-linecap="square" stroke-miterlimit="3"/><defs><filter id="7IfbdjXKqaGdlEMCGmzcX23IwXoC7ROA" x="-200%" y="-200%" width="400%" height="400%" filterUnits="objectBoundingBox" color-interpolation-filters="sRGB"><feGaussianBlur xmlns="http://www.w3.org/2000/svg" stdDeviation="2.146804531419514"/></filter></defs><g filter="url(#7IfbdjXKqaGdlEMCGmzcX23IwXoC7ROA)"><radialGradient id="_rgradient_1" fx="0.5" fy="0.5" cx="0.5" cy="0.5" r="0.5" gradientTransform="matrix(221.727,0,0,221.727,139.136,139.136)" gradientUnits="userSpaceOnUse"><stop offset="15.833333333333332%" stop-opacity="1" style="stop-color:rgb(8,8,8)"/><stop offset="82.08333333333333%" stop-opacity="1" style="stop-color:rgb(0,0,0)"/><stop offset="100%" stop-opacity="1" style="stop-color:rgb(77,0,0)"/></radialGradient><circle vector-effect="non-scaling-stroke" cx="250" cy="250" r="110.86366293980956" fill="url(#_rgradient_1)"/></g><g opacity="0.74"><path d=" M 176.545 115.744 C 129.137 141.757 96.97 192.152 96.97 250 L 96.97 250 C 96.97 307.848 129.137 358.243 176.545 384.256 L 176.545 367.379 C 167.71 361.839 159.508 355.307 152.103 347.897 C 139.464 335.268 129.382 320.318 122.412 303.867 C 115.215 286.824 111.512 268.508 111.53 250 L 111.53 250 C 111.512 231.492 115.215 213.167 122.412 196.124 C 129.382 179.682 139.464 164.732 152.103 152.103 C 159.508 144.693 167.71 138.161 176.545 132.621 L 176.545 115.744 Z  M 323.455 115.744 C 370.863 141.757 403.03 192.152 403.03 250 C 403.03 307.848 370.863 358.243 323.455 384.256 L 323.455 367.379 C 332.29 361.839 340.492 355.307 347.897 347.897 C 360.536 335.268 370.618 320.318 377.588 303.867 C 384.785 286.824 388.488 268.508 388.47 250.009 L 388.47 250 L 388.47 250 C 388.47 250 388.47 249.991 388.47 249.991 C 388.488 231.492 384.785 213.176 377.588 196.133 C 370.618 179.682 360.536 164.732 347.897 152.103 C 340.492 144.693 332.29 138.161 323.455 132.621 L 323.455 115.744 Z " fill-rule="evenodd" fill="rgb(255,106,0)" fill-opacity="0.15"/></g><g opacity="0.74"><path d=" M 418.452 157.149 C 383.616 94.104 314.618 53.262 238.008 58.048 L 238.008 58.048 C 169.688 62.316 111.892 101.836 81.234 157.778 L 102.456 157.739 C 107.503 149.682 113.211 142.034 119.532 134.875 C 134.383 118.032 152.345 104.215 172.434 94.183 C 193.248 83.82 215.933 77.739 239.149 76.311 L 239.149 76.311 C 262.362 74.838 285.639 78.047 307.58 85.74 C 328.75 93.194 348.292 104.668 365.125 119.532 C 377.581 130.515 388.382 143.2 397.222 157.188 L 418.452 157.149 Z  M 419.007 341.781 C 388.411 397.956 330.491 437.673 261.992 441.952 C 185.204 446.749 116.063 405.706 81.305 342.412 L 102.501 342.372 C 111.392 356.534 122.289 369.37 134.875 380.468 C 151.708 395.332 171.25 406.806 192.431 414.259 C 214.373 421.952 237.638 425.162 260.84 423.689 L 260.851 423.689 L 260.851 423.689 C 260.851 423.689 260.863 423.688 260.863 423.688 C 284.067 422.261 306.752 416.18 327.566 405.817 C 347.655 395.785 365.617 381.968 380.468 365.125 C 386.904 357.836 392.705 350.039 397.819 341.821 L 419.007 341.781 Z " fill-rule="evenodd" fill="rgb(255,106,0)" fill-opacity="0.15"/></g><g opacity="0.74"><path d=" M 349.773 414.397 C 411.341 377.014 449.33 306.405 441.417 230.054 L 441.417 230.054 C 434.361 161.966 392.512 105.833 335.364 77.486 L 336.271 98.689 C 344.527 103.402 352.402 108.793 359.813 114.816 C 377.248 128.967 391.788 146.349 402.633 166.012 C 413.838 186.384 420.841 208.802 423.216 231.94 L 423.216 231.94 C 425.636 255.074 423.381 278.462 416.591 300.7 C 410.008 322.157 399.342 342.151 385.179 359.577 C 374.714 372.472 362.481 383.782 348.866 393.186 L 349.773 414.397 Z  M 165.317 422.496 C 107.938 394.221 65.889 337.972 58.814 269.706 C 50.883 193.177 89.067 122.417 150.888 85.102 L 151.793 106.279 C 138.006 115.74 125.627 127.153 115.052 140.183 C 100.889 157.608 90.222 177.603 83.641 199.071 C 76.851 221.308 74.595 244.686 77.014 267.808 L 77.015 267.819 L 77.015 267.819 C 77.015 267.819 77.017 267.831 77.017 267.831 C 79.39 290.958 86.393 313.375 97.598 333.748 C 108.443 353.41 122.983 370.793 140.418 384.943 C 147.964 391.076 155.991 396.554 164.412 401.328 L 165.317 422.496 Z " fill-rule="evenodd" fill="rgb(255,106,0)" fill-opacity="0.15"/></g><g opacity="0.74"><path d=" M 134.266 39.965 C 55.602 83.431 4.641 169.523 10.613 265.113 L 10.613 265.113 C 15.939 350.359 65.249 422.473 135.051 460.727 L 135.002 434.247 C 124.949 427.951 115.406 420.828 106.474 412.941 C 85.459 394.41 68.218 371.998 55.701 346.932 C 42.77 320.963 35.183 292.658 33.401 263.69 L 33.401 263.69 C 31.563 234.725 35.567 205.682 45.166 178.305 C 54.466 151.89 68.784 127.506 87.329 106.504 C 101.034 90.962 116.861 77.484 134.315 66.455 L 134.266 39.965 Z  M 364.64 39.273 C 434.732 77.449 484.288 149.718 489.628 235.187 C 495.613 330.999 444.401 417.269 365.426 460.638 L 365.377 434.191 C 383.048 423.098 399.063 409.501 412.911 393.796 C 431.457 372.794 445.774 348.41 455.074 321.981 C 464.672 294.604 468.678 265.575 466.84 236.625 L 466.839 236.611 L 466.839 236.611 C 466.839 236.611 466.838 236.596 466.838 236.596 C 465.058 207.643 457.471 179.338 444.54 153.368 C 432.023 128.302 414.782 105.89 393.767 87.359 C 384.672 79.328 374.943 72.091 364.689 65.71 L 364.64 39.273 Z " fill-rule="evenodd" fill="rgb(255,106,0)" fill-opacity="0.15"/></g><g opacity="0.74"><path d=" M 40.085 365.855 C 83.552 444.518 169.644 495.479 265.234 489.507 L 265.234 489.507 C 350.479 484.181 422.594 434.871 460.848 365.069 L 434.368 365.119 C 428.071 375.171 420.949 384.714 413.061 393.646 C 394.531 414.662 372.119 431.903 347.053 444.42 C 321.083 457.351 292.778 464.938 263.81 466.719 L 263.81 466.719 C 234.846 468.557 205.802 464.553 178.425 454.955 C 152.01 445.654 127.627 431.337 106.624 412.791 C 91.082 399.087 77.605 383.259 66.575 365.805 L 40.085 365.855 Z  M 39.393 135.481 C 77.569 65.388 149.839 15.833 235.307 10.493 C 331.12 4.507 417.389 55.719 460.758 134.694 L 434.311 134.743 C 423.218 117.072 409.622 101.057 393.917 87.209 C 372.914 68.663 348.531 54.346 322.102 45.046 C 294.725 35.448 265.695 31.443 236.745 33.28 L 236.731 33.281 L 236.731 33.281 C 236.731 33.281 236.717 33.282 236.717 33.282 C 207.763 35.062 179.458 42.649 153.489 55.58 C 128.422 68.097 106.01 85.338 87.48 106.354 C 79.449 115.448 72.211 125.177 65.83 135.431 L 39.393 135.481 Z " fill-rule="evenodd" fill="rgb(255,106,0)" fill-opacity="0.15"/></g></svg>